<?xml version="1.0" encoding="UTF-8"?>
<svg id="rain" xmlns="http://www.w3.org/2000/svg" viewBox="0 0 767.92 718.32">
    <path id="rain-nuage" class="rain-nuage" d="m643.19,193.38C617.4,63.34,491.07-21.16,361.03,4.63c-77.54,15.38-142.53,67.95-173.78,140.56C95.07,134.57,11.74,200.69,1.12,292.86c-10.62,92.17,55.5,175.5,147.67,186.12,6.3.73,12.63,1.09,18.96,1.1h456c79.53.09,144.07-64.31,144.16-143.84.08-72.14-53.23-133.21-124.72-142.87Zm-19.44,238.7H167.75c-66.27-.03-119.97-53.79-119.94-120.06s53.79-119.97,120.06-119.94c9.75,0,19.46,1.2,28.92,3.55,12.2,3.04,24.68-3.85,28.61-15.79,26.02-78.64,99.52-131.75,182.35-131.76,97.79-.02,179.97,73.46,190.85,170.64,1.35,12.21,11.71,21.43,24,21.36h1.15c53.02.03,95.98,43.03,95.95,96.05-.03,52.98-42.97,95.93-95.95,95.95Z"/>
    <path id="rain-trait_1" class="rain-trait" d="m199.54,528.38c12.57,4.19,19.37,17.78,15.18,30.36,0,0,0,.02,0,.02l-24,72c-4.67,12.41-18.51,18.68-30.91,14.02-11.75-4.42-18.11-17.14-14.59-29.18l24-72c4.18-12.58,17.76-19.39,30.34-15.22Z"/>
    <path id="rain-trait_2" class="rain-trait" d="m343.54,527.52c12.57,4.19,19.37,17.78,15.18,30.36,0,0,0,.02,0,.02l-48,144c-4.67,12.41-18.51,18.68-30.91,14.02-11.75-4.42-18.11-17.14-14.59-29.18l48-144c4.18-12.58,17.76-19.39,30.34-15.22Z"/>
    <path id="rain-trait_3" class="rain-trait" d="m487.54,528.38c12.57,4.19,19.37,17.78,15.18,30.36,0,0,0,.02,0,.02l-24,72c-4.67,12.41-18.51,18.68-30.91,14.02-11.75-4.42-18.11-17.14-14.59-29.18l24-72c4.18-12.58,17.76-19.39,30.34-15.22Z"/>
    <path id="rain-trait_4" class="rain-trait" d="m631.54,526.65c12.57,4.19,19.37,17.78,15.18,30.36,0,0,0,.02,0,.02l-48,144c-3.71,12.72-17.04,20.03-29.76,16.32s-20.03-17.04-16.32-29.76c.17-.58.36-1.16.58-1.73l48-144c4.18-12.58,17.76-19.39,30.34-15.22Z"/>
</svg>