<?xml version="1.0" encoding="UTF-8"?>
<svg id="rain_only" xmlns="http://www.w3.org/2000/svg" viewBox="0 0 705.78 449.78">
    <g id="rain_only-trait_1">
        <path id="rain_only-trait_11" class="rain_only-trait" d="m127,221.99c-8,4.27-16.14,4.94-24.42,2.02-8.28-2.92-14.54-8.39-18.78-16.42L3.8,47.59C-.47,39.59-1.14,31.45,1.78,23.17,4.7,14.89,10.18,8.63,18.2,4.39,26.2.12,34.34-.54,42.61,2.4c8.28,2.94,14.54,8.41,18.78,16.38l80,160c4.27,8,4.94,16.14,2.02,24.42s-8.39,14.54-16.42,18.78h0Z"/>
        <path id="rain_only-trait_12" class="rain_only-trait" d="m239,445.99c-8,4.27-16.14,4.94-24.42,2.02-8.28-2.92-14.54-8.39-18.78-16.42l-64-128c-4.27-8-4.93-16.14-1.98-24.42s8.41-14.54,16.38-18.78c8-4.27,16.14-4.93,24.42-1.98,8.28,2.94,14.54,8.41,18.78,16.38l64,128c4.27,8,4.94,16.14,2.02,24.42s-8.39,14.54-16.42,18.78h0Z"/>
    </g>
    <g id="rain_only-trait_2">
        <path id="rain_only-trait_21" class="rain_only-trait" d="m305.19,285.72c-8,4.27-16.14,4.93-24.42,1.98s-14.54-8.41-18.78-16.38L149.99,47.32c-4.27-8-4.94-16.14-2.02-24.42,2.92-8.28,8.39-14.54,16.42-18.78,8-4.27,16.14-4.93,24.42-1.98s14.54,8.41,18.78,16.38l112,224c4.27,8,4.94,16.14,2.02,24.42s-8.39,14.54-16.42,18.78Z"/>
        <path id="rain_only-trait_22" class="rain_only-trait" d="m393.19,444.92c-8,4.27-16.14,5.07-24.42,2.4s-14.54-8-18.78-16l-32-64c-4.27-8-4.94-16.14-2.02-24.42s8.39-14.54,16.42-18.78c8-4.27,16.14-4.93,24.42-1.98,8.28,2.94,14.54,8.41,18.78,16.38l32,64c4.27,8,4.94,16,2.02,24s-8.39,14.13-16.42,18.4Z"/>
    </g>
    <g id="rain_only-trait_3">
        <path id="rain_only-trait_31" class="rain_only-trait" d="m373.99,125.72c-8,4.27-16.14,4.93-24.42,1.98-8.28-2.94-14.54-8.41-18.78-16.38l-31.2-64c-4.27-8-4.93-16.13-1.98-24.38,2.94-8.26,8.41-14.53,16.38-18.82,8-4.27,16-4.93,24-1.98,8,2.94,14.13,8.41,18.4,16.38l32,64c4.27,8,4.94,16.14,2.02,24.42s-8.39,14.54-16.42,18.78Z"/>
        <path id="rain_only-trait_32" class="rain_only-trait" d="m541.99,444.92c-8,4.27-16.14,5.07-24.42,2.4s-14.54-8-18.78-16l-112-224c-4.27-8-4.94-16.13-2.02-24.38,2.92-8.26,8.39-14.53,16.42-18.82,8-4.27,16.14-4.93,24.42-1.98s14.54,8.41,18.78,16.38l112,224c4.27,8,4.94,16,2.02,24-2.92,8-8.39,14.13-16.42,18.4Z"/>
    </g>
    <g id="rain_only-trait_4">
        <path id="rain_only-trait_41" class="rain_only-trait" d="m591.59,253.39c-8,4.27-16.14,4.93-24.42,1.98s-14.54-8.41-18.78-16.38l-96-192c-4.27-8-4.93-16.14-1.98-24.42,2.94-8.28,8.41-14.54,16.38-18.78,8-4.27,16.14-4.93,24.42-1.98,8.28,2.94,14.54,8.41,18.78,16.38l96,192c4.27,8,4.94,16.14,2.02,24.42s-8.39,14.54-16.42,18.78h0Z"/>
        <path id="rain_only-trait_42" class="rain_only-trait" d="m687.59,445.39c-8,4.27-16.14,4.94-24.42,2.02-8.28-2.92-14.54-8.39-18.78-16.42l-48-96c-4.27-8-4.94-16.14-2.02-24.42,2.92-8.28,8.39-14.54,16.42-18.78,8-4.27,16.14-4.93,24.42-1.98s14.54,8.41,18.78,16.38l48,96c4.27,8,4.94,16.14,2.02,24.42-2.92,8.28-8.39,14.54-16.42,18.78Z"/>
    </g>
</svg>