<?xml version="1.0" encoding="UTF-8"?>
<svg id="cloud" xmlns="http://www.w3.org/2000/svg" viewBox="0 0 632.84 395.64" width="80%" height="80%">
    <path class="cloud-nuage" d="m530.05,159.37C508.79,52.2,404.68-17.44,297.52,3.82c-63.9,12.68-117.46,56-143.21,115.83C78.35,110.9,9.67,165.39.92,241.35c-8.75,75.96,45.73,144.63,121.69,153.38,5.19.6,10.41.9,15.63.91h375.79c65.54.07,118.73-52.99,118.8-118.53.07-59.45-43.87-109.78-102.78-117.74Zm-194.02-119.74c80.59-.02,148.31,60.54,157.28,140.62,1.11,10.07,9.65,17.66,19.78,17.6h.95c43.69.01,79.1,35.44,79.09,79.13-.01,43.69-35.44,79.1-79.13,79.09H138.25c-54.62-.03-98.87-44.32-98.84-98.94.03-54.62,44.32-98.87,98.94-98.84,8.03,0,16.04.99,23.83,2.93,10.05,2.51,20.34-3.17,23.58-13.01,21.44-64.81,82.01-108.57,150.28-108.58Z"/>
</svg>