<?xml version="1.0" encoding="utf-8"?>
<!-- Generator: Adobe Illustrator 27.7.0, SVG Export Plug-In . SVG Version: 6.00 Build 0)  -->
<svg version="1.1" id="few_cloud" xmlns="http://www.w3.org/2000/svg" xmlns:xlink="http://www.w3.org/1999/xlink" x="0px" y="0px"
	 viewBox="0 0 1366 768" style="enable-background:new 0 0 1366 768;" xml:space="preserve">
<style type="text/css">
	.st0{fill:#FFBF00;}
	.st1{fill:#AAAAA6;}
</style>
<path id="cercle" class="st0" d="M689.8,252.9c18.8-39,65.6-55.3,104.6-36.5S849.7,282,830.9,321c-3.1,6.5-7.2,12.6-12,18
	c7.8,11,14.6,22.8,20.2,35.2c48.2-43.5,51.9-117.8,8.4-166c-43.5-48.2-117.8-51.9-166-8.4c-14.5,13.1-25.5,29.6-32,48.1
	C663.3,248.3,676.8,250,689.8,252.9L689.8,252.9z"/>
<path id="trait_x5F_h-g" class="st0" d="M606.7,160.3c-8.7-5.6-20.4-3.1-26,5.6c-5.5,8.5-3.2,19.9,5.1,25.6l31.3,21
	c8.6,5.8,20.3,3.5,26.1-5.2c5.8-8.6,3.5-20.3-5.2-26.1L606.7,160.3L606.7,160.3z"/>
<path id="trait_x5F_h" class="st0" d="M746.5,84.4c-2-10.2-11.9-16.8-22.1-14.8c-10.2,2-16.8,11.9-14.8,22.1l7.3,36.9
	c2,10.2,11.9,16.8,22.1,14.8s16.8-11.9,14.8-22.1L746.5,84.4z"/>
<path id="trait_x5F_h-d" class="st0" d="M898.9,129.8c5.9-8.5,3.8-20.2-4.7-26.2c-8.5-5.9-20.2-3.8-26.2,4.7
	c-0.1,0.2-0.2,0.4-0.4,0.5l-21,31.3c-5.8,8.6-3.5,20.3,5.2,26.1c8.6,5.8,20.3,3.5,26.1-5.2l0,0L898.9,129.8z"/>
<path id="trait_x5F_d" class="st0" d="M930.5,239.7c-10.2,2-16.8,11.9-14.8,22.1c2,10.2,11.9,16.8,22.1,14.8l36.9-7.3
	c10.2-2,16.8-11.9,14.8-22.1c-2-10.2-11.9-16.8-22.1-14.8L930.5,239.7z"/>
<path id="trait_x5F_b-d" class="st0" d="M919,369.1c-8.7-5.6-20.4-3.1-26,5.6c-5.5,8.5-3.2,19.9,5.1,25.6l31.3,21
	c8.6,5.8,20.3,3.5,26.1-5.2c5.8-8.6,3.5-20.3-5.2-26.1L919,369.1L919,369.1z"/>
<path id="nuage" class="st1" d="M642.9,326.1c75.7,0,137.1,61.4,137.1,137.1c0,0.7,0,1.4,0,2.2c-0.2,10.8,8.5,19.7,19.3,19.9
	c1.7,0,3.5-0.2,5.2-0.6c31.5-8.1,63.6,10.9,71.6,42.4c1.2,4.7,1.8,9.6,1.8,14.5c0,32.5-26.3,58.8-58.8,58.8h-333
	c-43.3-0.2-78.1-35.5-77.9-78.8s35.5-78.1,78.8-77.9c1,0,2,0,3,0.1c9.3,0.5,17.7-5.7,20-14.7C525.7,368.5,580.3,326.1,642.9,326.1z
	 M818.1,443.6c-10.7-96.8-97.9-166.5-194.6-155.8c-67.4,7.5-124.5,53-146.9,117c-64.7,5.3-112.8,62-107.5,126.7
	c5,61,56,108,117.2,107.9h333c54.1,0,97.9-43.8,97.9-97.9c0-54.1-43.8-97.9-97.9-97.9H818.1z"/>
</svg>
