<?xml version="1.0" encoding="UTF-8"?>
<svg id="cloud_few_moon" xmlns="http://www.w3.org/2000/svg" viewBox="0 0 767.85 720.09" width="80%" height="80%">
    <path id="cloud_few_moon-moon" class="cloud_few_moon-moon" d="m541.52,37.33c7.36-11.02,4.4-25.92-6.62-33.29-6.04-4.03-13.57-5.12-20.5-2.95-102.62,32.14-167.1,133.59-152.64,240.14,17.17,1.67,34.13,5.03,50.64,10.03-15.12-64.45,7.88-131.88,59.23-173.66-30.57,117.86,40.2,238.18,158.06,268.75,15.96,4.14,32.34,6.48,48.82,6.96-31.46,21.86-69.32,32.58-107.57,30.43,7.78,15.22,14.16,31.3,18.91,48,70.29-2.99,134.93-39.38,173.95-97.92,7.36-11.02,4.4-25.92-6.62-33.29-6.04-4.03-13.57-5.12-20.5-2.95-90.88,28.52-187.67-22.02-216.2-112.9-15.62-49.78-7.88-103.95,21.08-147.36h-.05Z"/>
    <path id="cloud_few_moon-nuage" class="cloud_few_moon-nuage" d="m336.12,336.09c92.78-.01,168.01,75.2,168.02,167.98,0,.89,0,1.77-.02,2.66-.21,13.25,10.36,24.17,23.62,24.38,2.15.03,4.3-.22,6.38-.76,38.6-9.86,77.89,13.44,87.76,52.04,1.48,5.78,2.23,11.73,2.24,17.7,0,39.76-32.24,72-72,72H144.12c-53.02-.3-95.76-43.52-95.46-96.54.3-53.02,43.52-95.76,96.54-95.46,1.24,0,2.48.04,3.72.09,11.39.56,21.6-6.96,24.43-18,19.15-74.23,86.11-126.1,162.77-126.1Zm214.7,144c-13.16-118.57-119.94-204.02-238.51-190.86-82.59,9.17-152.61,64.9-180.05,143.34C53,439.06-6,508.57.49,587.84c6.12,74.77,68.61,132.31,143.63,132.25h408c66.27,0,120-53.73,120-120s-53.73-120-120-120h-1.3Z"/>
</svg>