<?xml version="1.0" encoding="UTF-8"?>
<svg id="cloud_lot" xmlns="http://www.w3.org/2000/svg" viewBox="0 0 635.8 461">
    <path id="cloud_lot-nuage_av" class="nuage_av" d="m278.3,115.22c91.1-.02,167.65,66.16,177.78,153.68h1.07c54.88,0,99.36,43,99.36,96.05s-44.49,96.05-99.36,96.05H119.32C53.47,461.05.05,409.48,0,345.83c-.05-60.04,47.6-110.06,109.51-114.96,25.17-69.27,92.84-115.63,168.79-115.64Zm139.11,172.89c.05-74.27-62.18-134.51-139.01-134.56-63.54-.04-119.03,41.53-134.83,101.02-2.35,8.85-10.83,14.88-20.27,14.41-43.86-1.88-80.99,30.96-82.94,73.36-1.95,42.4,32.03,78.29,75.89,80.17,1.02.04,2.05.07,3.08.07h337.83c32.93-.07,59.55-25.94,59.48-57.76-.08-31.83-26.83-57.57-59.75-57.5-4.95.01-9.88.62-14.67,1.81-10.63,2.63-21.46-3.57-24.18-13.84-.44-1.65-.65-3.35-.62-5.06v-2.11Z"/>
    <g id="cloud_lot-nuage_ar">
        <path class="nuage_ar" d="m635.8,211.27c0,37.53-22.6,71.62-57.87,87.29-6.92-11.74-15.63-22.42-25.83-31.66,31.78-8.37,50.53-40.06,41.87-70.79-8.66-30.72-41.45-48.85-73.23-40.48-10.59,2.78-21.51-3.28-24.38-13.52-.24-.87-.43-1.76-.54-2.66-8.07-63.18-67.59-108.07-132.95-100.27-28.77,3.43-55.26,16.88-74.52,37.83-16.98-.75-34,.38-50.71,3.38C279.56,5.79,376.13-21.86,453.32,18.67c38.79,20.36,67.08,55.39,78.11,96.71,54.81-2.67,101.48,38.11,104.24,91.09.08,1.6.13,3.21.13,4.81Z"/>
    </g>
</svg>