<?xml version="1.0" encoding="UTF-8"?>
<svg id="cloud_few" xmlns="http://www.w3.org/2000/svg" viewBox="0 0 622.3 571.14">
    <path id="cloud_few-cercle" class="cls-2" d="m321.1,184.64c18.8-39,65.6-55.3,104.6-36.5s55.3,65.6,36.5,104.6c-3.1,6.5-7.2,12.6-12,18,7.8,11,14.6,22.8,20.2,35.2,48.2-43.5,51.9-117.8,8.4-166-43.5-48.2-117.8-51.9-166-8.4-14.5,13.1-25.5,29.6-32,48.1,13.8.4,27.3,2.1,40.3,5h0Z"/>
    <path id="cloud_few-trait_h-g" class="cls-2" d="m237.02,91.56c-8.75-5.63-20.51-3.12-26.14,5.63-5.53,8.55-3.22,20.01,5.13,25.74l31.47,21.12c8.65,5.83,20.41,3.52,26.24-5.23,5.83-8.65,3.52-20.41-5.23-26.24l-31.47-21.02h0Z"/>
    <path id="cloud_few-trait_h" class="cls-2" d="m377.59,15.24c-2.01-10.26-11.97-16.89-22.22-14.88-10.26,2.01-16.89,11.97-14.88,22.22l7.34,37.1c2.01,10.26,11.97,16.89,22.22,14.88s16.89-11.97,14.88-22.22l-7.34-37.1Z"/>
    <path id="cloud_few-trait_h-d" class="cls-2" d="m530.84,60.89c5.93-8.55,3.82-20.31-4.73-26.35-8.55-5.93-20.31-3.82-26.35,4.73-.1.2-.2.4-.4.5l-21.12,31.47c-5.83,8.65-3.52,20.41,5.23,26.24,8.65,5.83,20.41,3.52,26.24-5.23h0l21.12-31.37Z"/>
    <path id="cloud_few-trait_d" class="cls-2" d="m562.61,171.4c-10.26,2.01-16.89,11.97-14.88,22.22,2.01,10.26,11.97,16.89,22.22,14.88l37.1-7.34c10.26-2.01,16.89-11.97,14.88-22.22-2.01-10.26-11.97-16.89-22.22-14.88l-37.1,7.34Z"/>
    <path id="cloud_few-trait_b-d" class="cls-2" d="m551.05,301.52c-8.75-5.63-20.51-3.12-26.14,5.63-5.53,8.55-3.22,20.01,5.13,25.74l31.47,21.12c8.65,5.83,20.41,3.52,26.24-5.23,5.83-8.65,3.52-20.41-5.23-26.24l-31.47-21.02h0Z"/>
    <path id="cloud_few-nuage" class="cls-1" d="m274.2,257.84c75.7,0,137.1,61.4,137.1,137.1v2.2c-.2,10.8,8.5,19.7,19.3,19.9,1.7,0,3.5-.2,5.2-.6,31.5-8.1,63.6,10.9,71.6,42.4,1.2,4.7,1.8,9.6,1.8,14.5,0,32.5-26.3,58.8-58.8,58.8H117.4c-43.3-.2-78.1-35.5-77.9-78.8s35.5-78.1,78.8-77.9c1,0,2,0,3,.1,9.3.5,17.7-5.7,20-14.7,15.7-60.6,70.3-103,132.9-103Zm175.2,117.5c-10.7-96.8-97.9-166.5-194.6-155.8-67.4,7.5-124.5,53-146.9,117C43.2,341.84-4.9,398.54.4,463.24c5,61,56,108,117.2,107.9h333c54.1,0,97.9-43.8,97.9-97.9s-43.8-97.9-97.9-97.9h-1.2Z"/>
</svg>