<?xml version="1.0" encoding="UTF-8"?>
<svg id="humidity" xmlns="http://www.w3.org/2000/svg" viewBox="0 0 496 623.99">
  <path id="humidity-trait" class="humidity-trait" d="m104.07,549.47c83.26,67.36,204.64,67.36,287.87,0,83.26-67.36,104.38-182.66,50.11-273.47L285.57,43.67c-13.44-20-41.18-25.7-61.95-12.7-5.21,3.27-9.68,7.6-13.12,12.7L53.93,275.99C-.31,366.81,20.81,482.11,104.07,549.47h0Z"/>
  <path id="humidity-plein" class="humidity-plein" d="m103.07,548.9c83.26,67.36,204.64,67.36,287.87,0,83.26-67.36,104.38-182.66,50.11-273.47L284.57,43.11c-13.44-20-41.18-25.7-61.95-12.7-5.21,3.27-9.68,7.6-13.12,12.7L52.93,275.43C-1.31,366.25,19.81,481.54,103.07,548.9h0Z"/>
</svg>